HIERARCHY
ROOT Hip
{
	OFFSET -0.153497 0.155994 0.179232
	CHANNELS 6 Xposition Yposition Zposition Xrotation Yrotation Zrotation
	JOINT LowerSpine
	{
		OFFSET 0.014996 0.125872 0.274047
		CHANNELS 6 Xposition Yposition Zposition Xrotation Yrotation Zrotation
		JOINT MiddleSpine
		{
			OFFSET -0.004209 -0.035327 0.234350
			CHANNELS 3 Xrotation Yrotation Zrotation
			JOINT Chest
			{
				OFFSET 0.003319 0.027861 0.297479
				CHANNELS 3 Xrotation Yrotation Zrotation
				JOINT Neck
				{
					OFFSET -0.006629 -0.055643 0.657954
					CHANNELS 6 Xposition Yposition Zposition Xrotation Yrotation Zrotation
					JOINT Head
					{
						OFFSET -0.016500 -0.138471 0.360337
						CHANNELS 3 Xrotation Yrotation Zrotation
						End Site
						{
							OFFSET -0.000843 -0.007081 0.053090
						}
					}
				}
				JOINT LClavicle
				{
					OFFSET 0.028650 -0.266607 0.613392
					CHANNELS 6 Xposition Yposition Zposition Xrotation Yrotation Zrotation
					JOINT LShoulder
					{
						OFFSET 0.364285 0.095197 0.106202
						CHANNELS 3 Xrotation Yrotation Zrotation
						JOINT LForearm
						{
							OFFSET 0.822243 -0.090477 -0.002174
							CHANNELS 3 Xrotation Yrotation Zrotation
							JOINT LHand
							{
								OFFSET 0.685654 -0.077758 0.002419
								CHANNELS 3 Xrotation Yrotation Zrotation
								JOINT LFinger1
								{
									OFFSET 0.256534 -0.107406 0.015575
									CHANNELS 6 Xposition Yposition Zposition Xrotation Yrotation Zrotation
									JOINT LFinger11
									{
										OFFSET 0.097558 -0.026736 -0.026087
										CHANNELS 3 Xrotation Yrotation Zrotation
										JOINT LFinger12
										{
											OFFSET 0.066600 -0.018256 -0.017813
											CHANNELS 3 Xrotation Yrotation Zrotation
											End Site
											{
												OFFSET 0.049581 -0.012569 -0.015911
											}
										}
									}
								}
								JOINT LFinger2
								{
									OFFSET 0.268431 -0.041275 0.026194
									CHANNELS 6 Xposition Yposition Zposition Xrotation Yrotation Zrotation
									JOINT LFinger21
									{
										OFFSET 0.122900 -0.013946 0.000418
										CHANNELS 3 Xrotation Yrotation Zrotation
										JOINT LFinger22
										{
											OFFSET 0.068126 -0.007721 0.000252
											CHANNELS 3 Xrotation Yrotation Zrotation
											End Site
											{
												OFFSET 0.053096 -0.006003 -0.003760
											}
										}
									}
								}
								JOINT LFinger3
								{
									OFFSET 0.262370 0.027822 0.024228
									CHANNELS 6 Xposition Yposition Zposition Xrotation Yrotation Zrotation
									JOINT LFinger31
									{
										OFFSET 0.112344 -0.005753 -0.004924
										CHANNELS 3 Xrotation Yrotation Zrotation
										JOINT LFinger32
										{
											OFFSET 0.064021 -0.003267 -0.002784
											CHANNELS 3 Xrotation Yrotation Zrotation
											End Site
											{
												OFFSET 0.053110 -0.003132 -0.006234
											}
										}
									}
								}
								JOINT LFinger4
								{
									OFFSET 0.249618 0.077427 -0.007164
									CHANNELS 6 Xposition Yposition Zposition Xrotation Yrotation Zrotation
									JOINT LFinger41
									{
										OFFSET 0.070968 0.012134 -0.012348
										CHANNELS 3 Xrotation Yrotation Zrotation
										JOINT LFinger42
										{
											OFFSET 0.052043 0.008905 -0.009038
											CHANNELS 3 Xrotation Yrotation Zrotation
											End Site
											{
												OFFSET 0.051610 0.006887 -0.012585
											}
										}
									}
								}
								JOINT LFinger0
								{
									OFFSET 0.050514 -0.043665 -0.045990
									CHANNELS 6 Xposition Yposition Zposition Xrotation Yrotation Zrotation
									JOINT LFinger01
									{
										OFFSET 0.093556 -0.085408 -0.041682
										CHANNELS 3 Xrotation Yrotation Zrotation
										JOINT LFinger02
										{
											OFFSET 0.061898 -0.053792 -0.029197
											CHANNELS 3 Xrotation Yrotation Zrotation
											End Site
											{
												OFFSET 0.038970 -0.032280 -0.017570
											}
										}
									}
								}
							}
						}
					}
				}
				JOINT RClavicle
				{
					OFFSET -0.090487 -0.252411 0.613392
					CHANNELS 6 Xposition Yposition Zposition Xrotation Yrotation Zrotation
					JOINT RShoulder
					{
						OFFSET -0.331780 0.178150 0.106221
						CHANNELS 3 Xrotation Yrotation Zrotation
						JOINT RForearm
						{
							OFFSET -0.820485 0.105238 -0.002175
							CHANNELS 3 Xrotation Yrotation Zrotation
							JOINT RHand
							{
								OFFSET -0.684729 0.085510 0.002418
								CHANNELS 3 Xrotation Yrotation Zrotation
								JOINT RFinger1
								{
									OFFSET -0.274588 -0.044128 0.015578
									CHANNELS 6 Xposition Yposition Zposition Xrotation Yrotation Zrotation
									JOINT RFinger11
									{
										OFFSET -0.101108 -0.003067 -0.026087
										CHANNELS 3 Xrotation Yrotation Zrotation
										JOINT RFinger12
										{
											OFFSET -0.069025 -0.002097 -0.017816
											CHANNELS 3 Xrotation Yrotation Zrotation
											End Site
											{
												OFFSET -0.051146 -0.000568 -0.015910
											}
										}
									}
								}
								JOINT RFinger2
								{
									OFFSET -0.270615 0.022947 0.026197
									CHANNELS 6 Xposition Yposition Zposition Xrotation Yrotation Zrotation
									JOINT RFinger21
									{
										OFFSET -0.122739 0.015319 0.000418
										CHANNELS 3 Xrotation Yrotation Zrotation
										JOINT RFinger22
										{
											OFFSET -0.068032 0.008504 0.000252
											CHANNELS 3 Xrotation Yrotation Zrotation
											End Site
											{
												OFFSET -0.053020 0.006640 -0.003760
											}
										}
									}
								}
								JOINT RFinger3
								{
									OFFSET -0.248489 0.088686 0.024228
									CHANNELS 6 Xposition Yposition Zposition Xrotation Yrotation Zrotation
									JOINT RFinger31
									{
										OFFSET -0.110551 0.020803 -0.004923
										CHANNELS 3 Xrotation Yrotation Zrotation
										JOINT RFinger32
										{
											OFFSET -0.062996 0.011865 -0.002784
											CHANNELS 3 Xrotation Yrotation Zrotation
											End Site
											{
												OFFSET -0.052359 0.009434 -0.006234
											}
										}
									}
								}
								JOINT RFinger4
								{
									OFFSET -0.224440 0.133906 -0.007164
									CHANNELS 6 Xposition Yposition Zposition Xrotation Yrotation Zrotation
									JOINT RFinger41
									{
										OFFSET -0.066131 0.028468 -0.012345
										CHANNELS 3 Xrotation Yrotation Zrotation
										JOINT RFinger42
										{
											OFFSET -0.048494 0.020882 -0.009036
											CHANNELS 3 Xrotation Yrotation Zrotation
											End Site
											{
												OFFSET -0.048547 0.018819 -0.012585
											}
										}
									}
								}
								JOINT RFinger0
								{
									OFFSET -0.059359 -0.030572 -0.045987
									CHANNELS 6 Xposition Yposition Zposition Xrotation Yrotation Zrotation
									JOINT RFinger01
									{
										OFFSET -0.111005 -0.061039 -0.041688
										CHANNELS 3 Xrotation Yrotation Zrotation
										JOINT RFinger02
										{
											OFFSET -0.072801 -0.037744 -0.029194
											CHANNELS 3 Xrotation Yrotation Zrotation
											End Site
											{
												OFFSET -0.045463 -0.022220 -0.017570
											}
										}
									}
								}
							}
						}
					}
				}
			}
		}
	}
	JOINT RThigh
	{
		OFFSET -0.303091 0.049093 0.119255
		CHANNELS 6 Xposition Yposition Zposition Xrotation Yrotation Zrotation
		JOINT RShin
		{
			OFFSET -0.007273 0.126688 -1.200749
			CHANNELS 3 Xrotation Yrotation Zrotation
			JOINT RFoot
			{
				OFFSET 0.014514 0.121820 -1.179065
				CHANNELS 3 Xrotation Yrotation Zrotation
				JOINT RToe
				{
					OFFSET -0.030464 -0.255696 -0.157786
					CHANNELS 3 Xrotation Yrotation Zrotation
					End Site
					{
						OFFSET -0.006303 -0.052905 -0.005544
					}
				}
			}
		}
	}
	JOINT LThigh
	{
		OFFSET 0.306136 -0.023489 0.119264
		CHANNELS 6 Xposition Yposition Zposition Xrotation Yrotation Zrotation
		JOINT LShin
		{
			OFFSET 0.036837 0.121433 -1.200757
			CHANNELS 3 Xrotation Yrotation Zrotation
			JOINT LFoot
			{
				OFFSET 0.014514 0.121820 -1.179065
				CHANNELS 3 Xrotation Yrotation Zrotation
				JOINT LToe
				{
					OFFSET -0.030464 -0.255699 -0.157787
					CHANNELS 3 Xrotation Yrotation Zrotation
					End Site
					{
						OFFSET -0.006303 -0.052905 -0.005544
					}
				}
			}
		}
	}
}
MOTION
Frames: 4
Frame Time: 0.041667
0.187743 1.219405 1.603134 1.402624 27.622977 72.837404 0.014996 0.125872 0.274047 -0.000002 -0.000000 0.000006 0.238898 7.289957 -5.674540 3.527196 24.011737 -19.815572 -0.006629 -0.055643 0.657954 -14.162607 8.431806 3.840581 -26.307392 34.165378 12.916760 0.028651 -0.266607 0.613393 -2.681743 -18.870097 -2.446748 -34.620279 -36.536618 0.722488 0.258919 1.033514 -10.188003 -13.727947 4.875536 1.648105 0.256534 -0.107406 0.015575 -0.000005 0.000006 0.000006 -0.000002 0.000006 -0.000011 0.000002 -0.000004 0.000005 0.268431 -0.041275 0.026195 0.000006 0.000002 0.000008 0.000001 -0.000002 0.000000 -0.000002 -0.000001 0.000002 0.262370 0.027821 0.024228 0.000002 0.000003 0.000003 0.000003 0.000002 -0.000000 0.000007 0.000009 -0.000004 0.249618 0.077426 -0.007164 0.000002 0.000010 0.000004 -0.000004 0.000001 0.000001 0.000002 0.000001 0.000002 0.050514 -0.043666 -0.045989 0.000009 0.000002 0.000002 0.000008 -0.000007 0.000007 -0.000009 -0.000002 -0.000001 -0.090487 -0.252410 0.613393 2.913550 28.964954 2.342178 -79.579279 61.340454 67.395922 -10.734199 0.653863 1.943997 -0.000004 0.000003 -0.000002 -0.274588 -0.044129 0.015577 -0.000025 -0.000070 0.000011 -0.000026 0.000055 -0.000013 0.000012 0.000035 -0.000009 -0.270615 0.022947 0.026197 -0.000017 -0.000094 0.000017 0.000014 0.000025 0.000001 0.000004 -0.000008 0.000002 -0.248489 0.088686 0.024227 -0.000015 -0.000085 0.000010 0.000005 0.000025 -0.000005 -0.000013 0.000010 0.000006 -0.224440 0.133906 -0.007165 0.000001 -0.000085 0.000021 0.000014 0.000043 -0.000027 0.000007 0.000019 0.000004 -0.059359 -0.030572 -0.045986 0.000018 -0.000037 -0.000026 0.000029 -0.000043 -0.000006 0.000005 -0.000007 -0.000004 -0.272496 0.118744 0.147405 -53.700071 59.623979 -30.819238 69.378664 -6.362621 4.406295 0.961920 -0.469470 0.582294 -0.000036 -0.000015 -0.000003 0.307272 -0.027999 0.110389 -105.748172 -36.128835 -8.732445 77.668075 -6.638907 5.346421 -1.219303 0.169684 -0.037739 -0.063276 0.007559 0.000006 
0.187743 1.219405 1.603134 1.402624 27.622977 72.837404 0.014996 0.125872 0.274047 -0.000002 -0.000000 0.000006 0.238898 7.289957 -5.674540 3.527196 24.011737 -19.815572 -0.006629 -0.055643 0.657954 -14.162607 8.431806 3.840581 -26.307392 34.165378 12.916760 0.028651 -0.266607 0.613393 -2.681743 -18.870097 -2.446748 -34.620279 -36.536618 0.722488 0.258919 1.033514 -10.188003 -13.727947 4.875536 1.648105 0.256534 -0.107406 0.015575 -0.000005 0.000006 0.000006 -0.000002 0.000006 -0.000011 0.000002 -0.000004 0.000005 0.268431 -0.041275 0.026195 0.000006 0.000002 0.000008 0.000001 -0.000002 0.000000 -0.000002 -0.000001 0.000002 0.262370 0.027821 0.024228 0.000002 0.000003 0.000003 0.000003 0.000002 -0.000000 0.000007 0.000009 -0.000004 0.249618 0.077426 -0.007164 0.000002 0.000010 0.000004 -0.000004 0.000001 0.000001 0.000002 0.000001 0.000002 0.050514 -0.043666 -0.045989 0.000009 0.000002 0.000002 0.000008 -0.000007 0.000007 -0.000009 -0.000002 -0.000001 -0.090487 -0.252410 0.613393 2.913550 28.964954 2.342178 -79.579279 61.340454 67.395922 -10.734199 0.653863 1.943997 -0.000004 0.000003 -0.000002 -0.274588 -0.044129 0.015577 -0.000025 -0.000070 0.000011 -0.000026 0.000055 -0.000013 0.000012 0.000035 -0.000009 -0.270615 0.022947 0.026197 -0.000017 -0.000094 0.000017 0.000014 0.000025 0.000001 0.000004 -0.000008 0.000002 -0.248489 0.088686 0.024227 -0.000015 -0.000085 0.000010 0.000005 0.000025 -0.000005 -0.000013 0.000010 0.000006 -0.224440 0.133906 -0.007165 0.000001 -0.000085 0.000021 0.000014 0.000043 -0.000027 0.000007 0.000019 0.000004 -0.059359 -0.030572 -0.045986 0.000018 -0.000037 -0.000026 0.000029 -0.000043 -0.000006 0.000005 -0.000007 -0.000004 -0.272496 0.118744 0.147405 -53.700071 59.623979 -30.819238 69.378664 -6.362621 4.406295 0.961920 -0.469470 0.582294 -0.000036 -0.000015 -0.000003 0.307272 -0.027999 0.110389 -105.748172 -36.128835 -8.732445 77.668075 -6.638907 5.346421 -1.219303 0.169684 -0.037739 -0.063276 0.007559 0.000006 
0.181106 1.215740 1.604889 1.422212 27.486367 73.577591 0.014996 0.125872 0.274046 0.000000 0.000001 0.000011 0.528131 7.423604 -5.373599 4.278120 24.408378 -18.884945 -0.006629 -0.055643 0.657954 -14.276180 8.151871 3.697050 -24.064816 34.937500 12.471368 0.028651 -0.266607 0.613393 -2.835192 -19.753168 -2.590610 -25.385569 -35.928240 3.262692 0.126891 0.594640 -5.804248 -13.461698 4.853933 1.540872 0.256534 -0.107407 0.015575 -0.000006 0.000007 0.000007 0.000003 0.000004 -0.000004 0.000000 -0.000003 0.000004 0.268431 -0.041276 0.026195 0.000004 0.000003 0.000006 0.000002 0.000001 -0.000002 -0.000002 -0.000003 0.000006 0.262370 0.027821 0.024228 0.000003 0.000006 0.000002 0.000002 0.000001 -0.000005 0.000004 0.000008 -0.000001 0.249618 0.077426 -0.007164 0.000001 0.000008 0.000001 0.000002 0.000003 0.000002 0.000002 -0.000002 0.000001 0.050514 -0.043666 -0.045989 0.000011 0.000002 -0.000001 0.000011 -0.000009 0.000010 -0.000009 0.000001 -0.000005 -0.090487 -0.252410 0.613393 2.922861 29.069630 2.348593 -88.978049 51.115039 74.891037 -16.160513 1.168080 2.006272 -0.000002 0.000000 0.000000 -0.274589 -0.044128 0.015578 -0.000028 -0.000070 0.000014 -0.000028 0.000057 -0.000015 0.000014 0.000034 -0.000007 -0.270616 0.022947 0.026197 -0.000015 -0.000095 0.000018 0.000012 0.000025 0.000004 0.000005 -0.000008 0.000004 -0.248489 0.088686 0.024227 -0.000014 -0.000088 0.000014 0.000009 0.000024 -0.000007 -0.000011 0.000002 -0.000001 -0.224440 0.133906 -0.007165 0.000004 -0.000090 0.000025 0.000016 0.000049 -0.000026 0.000003 0.000023 0.000001 -0.059360 -0.030572 -0.045986 0.000018 -0.000041 -0.000023 0.000032 -0.000040 -0.000009 0.000006 -0.000008 -0.000000 -0.272496 0.118744 0.147405 -53.320049 60.476776 -31.498592 70.192215 -6.395702 4.496690 1.345710 -0.575772 0.692461 -0.000037 -0.000014 -0.000005 0.307272 -0.027999 0.110389 -104.902191 -35.197249 -8.247800 76.636464 -6.611939 5.227400 -1.394078 0.106174 0.095623 -0.000076 0.000031 0.000002 
0.178895 1.214509 1.605867 1.407008 27.387209 73.852841 0.014996 0.125872 0.274046 0.000001 0.000003 0.000007 0.667013 7.466650 -5.287928 4.627652 24.533264 -18.620095 -0.006629 -0.055643 0.657954 -14.305812 8.009241 3.621348 -23.316557 35.143014 12.300638 0.028651 -0.266607 0.613393 -2.876024 -19.985041 -2.628946 -22.486583 -35.763011 4.037621 0.085025 0.456830 -4.448339 -7.221075 2.710211 0.634184 0.256533 -0.107407 0.015575 -0.000010 0.000006 0.000006 0.000000 0.000003 -0.000005 0.000004 -0.000005 0.000009 0.268431 -0.041275 0.026195 0.000005 0.000003 0.000004 0.000001 -0.000001 0.000000 -0.000003 -0.000001 0.000005 0.262370 0.027822 0.024228 0.000002 0.000005 -0.000002 0.000004 0.000002 -0.000002 0.000003 0.000007 0.000004 0.249618 0.077426 -0.007164 0.000001 0.000009 0.000000 0.000001 0.000002 0.000002 0.000001 -0.000001 0.000004 0.050514 -0.043665 -0.045989 0.000009 0.000004 -0.000001 0.000010 -0.000007 0.000015 -0.000012 -0.000001 0.000003 -0.090487 -0.252411 0.613392 2.924037 29.091845 2.348530 -91.397049 48.367312 77.148763 -18.623621 1.672579 1.473495 0.000004 0.000002 0.000000 -0.274588 -0.044128 0.015577 -0.000028 -0.000071 0.000014 -0.000023 0.000057 -0.000018 0.000015 0.000037 -0.000012 -0.270614 0.022947 0.026196 -0.000018 -0.000093 0.000017 0.000013 0.000024 0.000001 0.000005 -0.000007 0.000001 -0.248488 0.088685 0.024227 -0.000014 -0.000091 0.000014 0.000004 0.000029 -0.000005 -0.000015 0.000005 0.000004 -0.224440 0.133906 -0.007165 0.000002 -0.000085 0.000019 0.000014 0.000045 -0.000027 0.000003 0.000018 0.000002 -0.059359 -0.030572 -0.045986 0.000019 -0.000043 -0.000025 0.000029 -0.000042 -0.000009 0.000007 -0.000005 0.000003 -0.272496 0.118744 0.147405 -52.992562 60.762223 -31.881626 70.365128 -6.402564 4.515963 1.534229 -0.741802 0.937812 -0.000036 -0.000016 -0.000005 0.307272 -0.027998 0.110389 -104.580701 -34.843264 -8.080288 76.335915 -6.603680 5.192813 -1.469922 0.017542 0.250612 -0.000066 0.000028 0.000002 
